<?xml version="1.0" encoding="utf-8"?>
<!-- Generator: Adobe Illustrator 21.0.2, SVG Export Plug-In . SVG Version: 6.00 Build 0)  -->
<svg version="1.1" id="Layer_1" xmlns="http://www.w3.org/2000/svg" xmlns:xlink="http://www.w3.org/1999/xlink" x="0px" y="0px"
	 viewBox="0 0 371 249" style="enable-background:new 0 0 371 249;" xml:space="preserve">
<style type="text/css">
	.st0{fill:#FFFFFF;}
	.st1{fill:#91D8D6;}
</style>
<g>
	<path class="st0" d="M327,149.7c0,0-4.1-2.7-4.1-6.8c0-4.1,16.3-116.9,20.4-118.3c4.1-1.4,28.6-6.8,27.2,0s-38.1,121-38.1,121
		S329.7,148.3,327,149.7z"/>
</g>
<path class="st0" d="M105.8,36.9"/>
<g>
	<path class="st0" d="M119.2,75.8c0,0,38,4.3,49-14.6c0,0,5.5-8.1,2.9-24.5s-19-8.3-21.7-5.6c-2.7,2.7-20.5,18.9-24.9,55.6
		s21.5,36.9,28.3,32.8c6.8-4,31.5-29.7,46.7-63.6s3-38.1-1.1-36.7s-17.7,8-20.7,46.1c-3,38.1-5.8,47.6-5.8,47.6s8.1,2.8,9.5-4
		c1.4-6.8,9.7-28.5,15.1-23c0,0,0,1.4-1.4,8.1c-1.4,6.8-5.6,20.4-1.5,24.5c4.1,4.1,15-6.7,15-6.7s4,10.9,12.2,8.2
		c8.2-2.7,10.9-8.1,10.9-8.1s-1.4,12.2,6.7,10.9c8.2-1.3,20.6-23,20.6-23s-2.9,20.4,12.1,16.4c15-4,26-25.7,28.8-31.1
		c2.8-5.4-1.4-1.4-2.7,0c-1.4,1.4-17.9,28.4-26,24.3c-8.1-4.1,3-36.7,3-36.7s2.7-2.7,6.8,0c0,0,5.4,1.4,2.7-1.3
		c-2.7-2.7-8.1-2.8-8.1-2.8l2.9-21.7c0,0,2.7-4.1-2.7-2.7s-6.8,4-6.8,4l-4.2,20.4L253.9,74l0,2.7l9.5-1.3l-2.8,16.3
		c0,0-16.5,28.4-17.8,21.6c0,0-4-9.5,3-35.3l0-2.7l-5.4,0c0,0-8.1-10.9-17.7-0.1c-9.6,10.8-12.3,16.2-13.8,32.5
		c0,0-12.3,16.2-9.5,1.3c2.8-14.9,7-27.1-2.5-28.6c-9.5-1.4-12.3,12.2-12.3,12.2s5.8-57.1,14-66.5c0,0,2.7-4.1,2.7,2.7
		s-9.8,47.5-29,67.8s-28.7,27-31.3,7.9c-2.6-19.1,5.9-63.9,22.2-71.9c0,0,8.1,2.8,5.3,17.7c-2.8,14.9-9.6,13.5-46.3,14.6
		s-60,18.6-68.4,59.4s17.2,69.5,41.7,72.3c24.5,2.9,50.3,5.8,95.2-2.1s95.2,2,95.2,2s33.9,7,42.1,13.9c0,0-42-23.4-82.8-25
		s-63.9,0.9-63.9,0.9s-83,13-101.9-18.4s-2.3-63.9-2.3-63.9S90.7,72.9,119.2,75.8z"/>
</g>
<g>
	<path class="st1" d="M230.5,106.5c0,0,6.9-21.7,4.3-28.5c-2.7-6.8-9.5,4-10.9,6.7c-1.4,2.7-7,24.4-2.9,29.9
		S230.5,106.5,230.5,106.5z"/>
</g>
<g>
	<path class="st0" d="M186.9,130.6c0,0-1.3-8.2-14.9-2.8c-13.6,5.3-16.6,35.2-13.9,39.3c0,0,4,16.3,21.7,1.5c0,0-0.1,8.2,8.1,9.6
		c8.1,1.4,19.2-21.6,19.2-21.6l-9.9,62.5c0,0,0,1.4,2.7,1.4c2.7,0,6.8,1.4,8.2-10.8s7.2-58.4,15.4-66.5c8.2-8.1,8.2-8.1,8.2-4
		c0,4.1-4.2,19-4.2,21.7c0,2.7-4.2,17.6,4,17.7c8.2,0.1,23.3-21.6,23.3-21.6l-9.9,62.5c0,0,0,1.4,2.7,1.4s5.4,0,8.3-14.9
		s5.8-59.8,19.5-67.9c0,0,6.8-6.8,4,5.5c-2.8,12.2-5.6,21.7-5.6,21.7s-5.5,12.2,5.3,13.6c10.9,1.4,34.3-37.8,34.3-37.8
		s1.4-6.8-1.3-2.7c-2.7,4.1-23.4,35.2-30.1,33.8c0,0-1.3-4.1,2.8-14.9c4.2-10.8,8.4-28.5-2.5-25.9c-10.9,2.6-16.4,9.4-16.4,9.4
		l2.8-9.5c0,0,0-2.7-4.1-2.7c-4.1,0-4.1,0-4.1,0l-5.6,23.1c0,0-20.6,28.4-20.5,17.5c0.1-10.9,7-28.5,7-28.5s2.8-10.9-8.1-9.6
		s-13.7,9.4-13.7,9.4l1.4-9.5c0,0,1.4-4.1-6.8-2.8c0,0-2.7,0-2.7,4.1c0,4.1-2.8,16.3-2.8,16.3s-16.5,29.8-17.8,18.9s4.3-38,4.3-38
		l-6.8-1.4L186.9,130.6z"/>
</g>
<g>
	<path class="st0" d="M322.9,175.5c0,0-8.2-4.1-4.1-10.9c4.1-6.8,10.9-1.4,10.9-1.4s4.1,5.4,0,9.5
		C325.6,176.9,322.9,175.5,322.9,175.5z"/>
</g>
<g>
	<path class="st1" d="M170.5,142.8c0,0,6.9-17.6,12.3-12.2c5.4,5.5-4.3,32.6-7,35.3s-5.5,8.1-6.8,2.7
		C167.6,163.1,164.9,156.3,170.5,142.8z"/>
</g>
</svg>
